<svg width="1537" height="961" viewBox="0 0 1537 961" fill="none" xmlns="http://www.w3.org/2000/svg">
<mask id="mask0_3_3" style="mask-type:alpha" maskUnits="userSpaceOnUse" x="0" y="0" width="1537" height="961">
<rect width="1537" height="961" fill="#D21312"/>
</mask>
<g mask="url(#mask0_3_3)">
<rect width="1537" height="961" fill="#D21312"/>
<g opacity="0.6">
<path d="M227 215.5C51.7269 215.5 -86.3069 385.521 -54.8065 558.008V1336.32H1597.38V24C1536.21 178.815 1565.41 258.5 1399 258.5C1228.77 258.5 1160.17 70 997 70C770.876 70 777.23 374.5 606.5 374.5C425.66 374.5 397.729 215.5 227 215.5Z" fill="url(#paint0_linear_3_3)" fill-opacity="0.5"/>
<path d="M-55.6407 566.656C-87.141 394.17 56.5168 221.821 231.79 221.821C402.519 221.821 416.16 373.5 597 373.5C767.729 373.5 768.376 70 994.5 70C1157.67 70 1216.27 255.5 1386.5 255.5C1552.91 255.5 1577.5 161.5 1596.54 32.6486" stroke="white" stroke-opacity="0.5" stroke-width="10.1237"/>
</g>
</g>
<defs>
<linearGradient id="paint0_linear_3_3" x1="769.106" y1="24" x2="768.547" y2="1263.89" gradientUnits="userSpaceOnUse">
<stop stop-color="white" stop-opacity="0.2"/>
<stop offset="0.208333" stop-color="white" stop-opacity="0.46"/>
<stop offset="0.9999" stop-color="white" stop-opacity="0"/>
<stop offset="1" stop-color="white" stop-opacity="0"/>
</linearGradient>
</defs>
</svg>
